<svg width="300" height="84" viewBox="0 0 300 84" fill="none" xmlns="http://www.w3.org/2000/svg">
<g clip-path="url(#clip0_64381_890)">
<path d="M6.79191 37.0179L222.941 37.008L216.581 0.150013H0.149902L6.79191 37.0179Z" fill="#231F20"/>
<path d="M108.693 7.622H123.218V9.58705H110.963V14.8449H122.754V16.7933H110.963V23.9731H108.693V7.622Z" fill="white"/>
<path d="M108.693 7.622H123.218V9.58705H110.963V14.8449H122.754V16.7933H110.963V23.9731H108.693V7.622Z" stroke="white" stroke-width="2" stroke-miterlimit="10"/>
<path d="M127.069 15.8636C127.069 17.1383 127.398 18.7813 128.506 20.0327C130.037 21.8185 132.413 22.3928 134.78 22.3928C140.831 22.3928 142.282 18.5755 142.282 15.7939C142.282 11.4888 138.836 9.10214 134.365 9.21832C130.959 9.30794 127.069 11.0207 127.069 15.8636ZM144.625 16.0263C144.625 21.6094 140.041 24.4109 134.78 24.4109C132.393 24.4109 129.987 23.9728 128.072 22.6085C126.468 21.4899 124.756 19.4552 124.756 16.0031C124.756 9.95853 129.735 7.2234 134.617 7.2234C140.343 7.24995 144.625 10.6091 144.625 16.0263Z" fill="white"/>
<path d="M127.069 15.8636C127.069 17.1383 127.398 18.7813 128.506 20.0327C130.037 21.8185 132.413 22.3928 134.78 22.3928C140.831 22.3928 142.282 18.5755 142.282 15.7939C142.282 11.4888 138.836 9.10214 134.365 9.21832C130.959 9.30794 127.069 11.0207 127.069 15.8636ZM144.625 16.0263C144.625 21.6094 140.041 24.4109 134.78 24.4109C132.393 24.4109 129.987 23.9728 128.072 22.6085C126.468 21.4899 124.756 19.4552 124.756 16.0031C124.756 9.95853 129.735 7.2234 134.617 7.2234C140.343 7.24995 144.625 10.6091 144.625 16.0263V16.0263Z" stroke="white" stroke-width="2" stroke-miterlimit="10"/>
<path d="M149.186 9.58797V15.5163H157.272C158.54 15.5163 160.17 15.4964 161.09 14.2649C161.511 13.7338 161.644 13.1098 161.644 12.5289C161.644 11.9049 161.488 11.2808 161.159 10.7896C160.422 9.60789 159.234 9.60789 158.169 9.58797H149.186ZM146.893 7.62292H158.009C159.45 7.63952 161.179 7.66275 162.6 8.9407C163.128 9.39877 164.054 10.4709 164.054 12.436C164.054 16.3528 160.738 16.8839 159.649 17.0664L165.68 23.974H162.646L157.11 17.4382H149.21V23.974H146.893V7.62292Z" fill="white"/>
<path d="M149.186 9.58797V15.5163H157.272C158.54 15.5163 160.17 15.4964 161.09 14.2649C161.511 13.7338 161.644 13.1098 161.644 12.5289C161.644 11.9049 161.488 11.2808 161.159 10.7896C160.422 9.60789 159.234 9.60789 158.169 9.58797H149.186ZM146.893 7.62292H158.009C159.45 7.63952 161.179 7.66275 162.6 8.9407C163.128 9.39877 164.054 10.4709 164.054 12.436C164.054 16.3528 160.738 16.8839 159.649 17.0664L165.68 23.974H162.646L157.11 17.4382H149.21V23.974H146.893V7.62292V7.62292Z" stroke="white" stroke-width="2" stroke-miterlimit="10"/>
<path d="M168.318 7.622H183.444V9.56382L170.612 21.935H183.677V23.9731H167.342V22.0512L180.148 9.63352H168.318V7.622Z" fill="white"/>
<path d="M168.318 7.622H183.444V9.56382L170.612 21.935H183.677V23.9731H167.342V22.0512L180.148 9.63352H168.318V7.622Z" stroke="white" stroke-width="2" stroke-miterlimit="10"/>
<path d="M195.155 11.1618C195.045 10.8863 194.913 10.6074 194.79 10.3319C194.717 10.1228 194.654 9.91038 194.604 9.70458C194.531 9.91038 194.464 10.1427 194.375 10.3751C194.255 10.6771 194.116 10.9526 193.98 11.258L190.528 18.0394H198.61L195.155 11.1618ZM193.422 7.59679H195.879L204.263 23.9744H201.594L199.609 19.9381H189.555L187.564 23.9744H184.974L193.422 7.59679Z" fill="white"/>
<path d="M195.155 11.1618C195.045 10.8863 194.913 10.6074 194.79 10.3319C194.717 10.1228 194.654 9.91038 194.604 9.70458C194.531 9.91038 194.464 10.1427 194.375 10.3751C194.255 10.6771 194.116 10.9526 193.98 11.258L190.528 18.0394H198.61L195.155 11.1618ZM193.422 7.59679H195.879L204.263 23.9744H201.594L199.609 19.9381H189.555L187.564 23.9744H184.974L193.422 7.59679V7.59679Z" stroke="white" stroke-width="2" stroke-miterlimit="10"/>
<path d="M86.3134 31.9178H85.1383V6.90326H86.3134V31.9178Z" fill="white"/>
<path d="M22.5229 31.9662L33.2112 31.9562L39.8034 21.8389L31.0072 19.3494C28.3683 23.2728 22.5229 31.9662 22.5229 31.9662Z" fill="white"/>
<path d="M38.5201 27.8021H44.6543L52.2157 16.1014H26.7829C26.6701 16.1014 26.6402 16.1546 26.6302 16.1778C26.6369 16.1811 26.6502 16.1844 26.6701 16.1911C27.2875 16.3902 43.2469 20.4299 43.2469 20.4299L38.5201 27.8021Z" fill="white"/>
<path d="M47.2234 27.8021H53.0754L60.6468 16.1014H54.9276L47.2234 27.8021Z" fill="white"/>
<path d="M55.7163 27.8265H55.7362C57.137 27.8265 59.7925 27.6506 61.867 26.4623C63.686 25.4067 66.8195 20.4742 69.1995 16.1026H63.072L55.7163 27.8265Z" fill="white"/>
<path d="M34.4812 13.8768C34.4812 13.8768 64.893 13.8735 66.4763 13.8735C70.4695 13.8735 73.6959 8.8779 74.788 6.94937L47.0051 6.94605C38.9623 6.94605 35.5202 11.9317 34.4812 13.8768Z" fill="white"/>
<path d="M290.203 81.9036L91.3713 81.9169L98.8233 32.2595L297.954 32.2529L290.203 81.9036Z" fill="#EA0C80"/>
<path d="M290.203 81.9036L91.3713 81.9169L98.8233 32.2595L297.954 32.2529L290.203 81.9036Z" stroke="#EC008C" stroke-width="11.0732" stroke-miterlimit="10"/>
<path d="M116.813 76.1044L119.283 60.5234H114.344L111.877 76.1044H101.491L107.572 37.7162H117.958L115.778 51.4616H120.72L122.898 37.7162H133.284L127.203 76.1044H116.813Z" fill="white"/>
<path d="M144.464 67.0945C148.384 67.0945 149.771 59.304 150.15 56.9108C150.528 54.5208 151.61 46.727 147.69 46.727C143.77 46.727 142.382 54.5175 142.004 56.9108C141.629 59.304 140.543 67.0945 144.464 67.0945ZM149.227 37.0545C159.759 37.0545 162.225 47.5436 160.738 56.9141C159.255 66.2813 153.469 76.7704 142.93 76.7704C132.388 76.7671 129.928 66.2779 131.409 56.9108C132.902 47.5436 138.681 37.0545 149.227 37.0545Z" fill="white"/>
<path d="M173.184 55.4866C175.932 55.4866 177.791 53.0967 178.186 50.6005C178.717 47.2414 176.908 45.814 174.03 45.9667L172.533 55.4368L173.184 55.4866ZM174.959 76.1064L171.733 60.1204L171.617 60.2233C171.371 62.1054 171.179 63.9908 170.88 65.8728L169.25 76.1064H158.867L164.955 37.7182H174.979C183.991 37.7182 190.089 40.367 188.479 50.501C187.815 54.7265 185.385 58.4939 180.997 60.1204L186.212 76.1097L174.959 76.1064Z" fill="white"/>
<path d="M187.33 76.1094L193.411 37.7212H203.797L197.719 76.1094H187.33Z" fill="white"/>
<path d="M198.529 76.1094L212.879 51.7221C213.861 50.0426 215.322 48.2103 216.666 46.4809C214.615 46.5805 212.291 46.7863 210.051 46.7863H205.467L206.897 37.7212L232.314 37.7245L216.792 63.9938C216.092 65.2153 215.302 66.3372 214.608 67.5056C216.517 67.3529 218.499 67.0509 220.484 67.0509H226.389L224.955 76.1127L198.529 76.1094Z" fill="white"/>
<path d="M240.536 67.1009C244.463 67.1009 245.844 59.3104 246.222 56.9171C246.601 54.5239 247.683 46.7367 243.763 46.7367C239.839 46.7334 238.455 54.5239 238.077 56.9171C237.702 59.3104 236.609 67.1009 240.536 67.1009ZM245.299 37.0608C255.832 37.0641 258.298 47.5499 256.811 56.9204C255.327 66.2876 249.545 76.7767 239.003 76.7767C228.46 76.7734 226.001 66.2843 227.481 56.9171C228.968 47.5499 234.754 37.0608 245.299 37.0608Z" fill="white"/>
<path d="M261.023 37.7245H270.901L275.538 60.8404L275.655 60.7408C275.95 56.3095 275.887 51.9312 276.584 47.5032L278.127 37.7245L288.109 37.7278L282.028 76.116H272.046L267.818 53.9693L267.705 54.0689C267.379 57.6837 267.277 61.2486 266.702 64.8634L264.92 76.1126H254.942L261.023 37.7245Z" fill="white"/>
</g>
<defs>
<clipPath id="clip0_64381_890">
<rect width="300" height="83.7132" fill="white"/>
</clipPath>
</defs>
</svg>
