<svg width="296" height="36" viewBox="0 0 296 36" fill="none" xmlns="http://www.w3.org/2000/svg">
<path d="M25.0673 6.79862L23.1094 13.6274H31.7981L33.6232 6.88353L37.5949 6.88054L39.2861 0.340494L50.737 0.328506L42.6656 35.0276L30.3207 35.0316L34.0198 20.2973L29.5635 20.2923L27.6356 27.4696L19.6391 27.4726L21.6329 20.2883L17.1167 20.3003L12.7624 35.0366L0.644287 35.0436L11.7694 0.367465L23.0085 0.356477L21.1445 6.65378L25.0673 6.79862ZM66.5271 0.398432L59.7044 35.1075L47.3566 35.1125L55.0773 0.408421L66.5271 0.398432ZM83.2264 23.8515L84.2493 16.6761L79.777 16.5922L76.8202 35.0176L64.4564 35.0196L70.9335 0.309527L82.3952 0.298538L81.3913 6.7247L85.3151 6.8246L84.3851 13.5375L88.7974 13.5994L90.6804 0.288549L102.15 0.278559L98.1315 35.0096L85.7547 35.0146L87.304 23.9524L83.2264 23.8515ZM132.663 27.8482L132.35 34.9986L102.86 35.0076L106.532 0.274564L133.869 0.246593L133.599 6.39605L117.517 6.41104L117.01 13.4965L133.288 13.5405L132.994 20.2533L116.41 20.2643L115.853 27.7843L132.663 27.8482ZM293.042 0.0907593L295.005 6.2562L287.021 6.26219L287.072 6.45299C287.402 7.80156 287.76 9.1731 288.142 10.5736C288.53 11.9791 288.937 13.4076 289.359 14.8551C289.786 16.3075 290.221 17.7809 290.673 19.2544C291.124 20.7368 291.583 22.2302 292.039 23.7216C292.316 24.6277 292.593 25.5407 292.874 26.4667C293.161 27.3937 293.448 28.3267 293.728 29.2657C294.015 30.2077 294.296 31.1547 294.577 32.1007C294.856 33.0487 295.136 33.9967 295.4 34.9447L282.941 34.9487L275.108 6.27518L267.119 6.28217L265.544 0.117731L293.042 0.0907593V0.0907593ZM264.356 13.2767L266.056 20.1734L249.384 20.1824L252.472 34.9587L240.034 34.9617L233.666 0.148698L261.133 0.121726L262.646 6.28517L246.479 6.29916L247.938 13.2697L264.356 13.2767ZM216.563 23.7376L218.099 34.9707L205.673 34.9737L201.827 0.180664L229.261 0.153692L235.278 34.9677L222.85 34.9707L221.23 23.7536L216.563 23.7376V23.7376ZM224.619 10.0731L223.921 5.65384L218.488 5.65983L218.988 9.70953L214.724 9.67556L214.175 5.66283L208.92 5.66982L209.473 10.0851L214.297 10.0831L214.52 11.7074L212.094 11.7094L212.98 18.5162L215.891 18.5132L215.672 16.1986L219.988 16.1816L220.348 18.5092L223.298 18.5072L222.264 11.7324L219.859 11.7184L219.65 10.0741L224.619 10.0731V10.0731ZM195.013 16.9588L199.114 16.9558L200.928 34.9737L188.517 34.9806L187.409 20.3122L182.814 20.1994L183.768 34.9806L171.358 34.9876L170.025 0.21263L197.428 0.186657L198.726 13.0899L194.636 13.0859L195.013 16.9588V16.9588ZM186.919 13.5065L186.381 6.3521L181.92 6.3531L182.381 13.5085L186.919 13.5065V13.5065ZM149.91 6.38207L165.807 6.36908L165.631 0.215626L138.258 0.244596L137.088 34.9956L166.62 34.9876L166.415 27.8422L149.53 27.8482L149.91 6.38207Z" fill="#A9A09D"/>
</svg>
